<svg version="1.1" preserveAspectRatio="none" xmlns="http://www.w3.org/2000/svg" width="500" height="500" viewBox="0 0 500 500"><rect width="100%" height="100%" fill="#FFFFFF" fill-opacity="1"/><svg viewBox="188.0166 -102.6085 380.448 360.1676" width="333" height="315.24889288417864" x="83.5px" y="92.3756px" xmlns="http://www.w3.org/2000/svg" xmlns:xlink="http://www.w3.org/1999/xlink" preserveAspectRatio="none"><defs></defs><style>.companyName {fill:#0000FF;fill-opacity:1;}.icon1 {fill:#0000FF;fill-opacity:1;}.icon2 {fill:#A9FF94;fill-opacity:1;}.icon3 {fill:#000084;fill-opacity:1;}.icon3-str {stroke:#000084;stroke-opacity:1;}.text {fill:#0000FF;fill-opacity:1;}</style><g opacity="1" transform="rotate(0 256.5214 238.2436)">
<svg width="243.4385" height="19.3155" x="256.5214" y="238.2436" version="1.1" preserveAspectRatio="none" viewBox="4.2 -30.28 384.6 30.520000000000003">
  <g transform="matrix(1 0 0 1 0 0)" class="text"><path id="id-6izo4zJp17" d="M4.20 0L4.20-28L16-28Q20.44-28 23.88-26.24Q27.32-24.48 29.22-21.30Q31.12-18.12 31.12-14L31.12-14Q31.12-9.88 29.22-6.70Q27.32-3.52 23.88-1.76Q20.44 0 16 0L16 0L4.20 0ZM8.20-3.48L15.76-3.48Q19.16-3.48 21.74-4.80Q24.32-6.12 25.72-8.50Q27.12-10.88 27.12-14L27.12-14Q27.12-17.12 25.72-19.50Q24.32-21.88 21.74-23.20Q19.16-24.52 15.76-24.52L15.76-24.52L8.20-24.52L8.20-3.48Z M57.84-10.48Q57.84-10.04 57.76-9.32L57.76-9.32L40.56-9.32Q40.92-6.52 43.02-4.82Q45.12-3.12 48.24-3.12L48.24-3.12Q52.04-3.12 54.36-5.68L54.36-5.68L56.48-3.20Q55.04-1.52 52.90-0.64Q50.76 0.24 48.12 0.24L48.12 0.24Q44.76 0.24 42.16-1.14Q39.56-2.52 38.14-5Q36.72-7.48 36.72-10.60L36.72-10.60Q36.72-13.68 38.10-16.16Q39.48-18.64 41.90-20.02Q44.32-21.40 47.36-21.40L47.36-21.40Q50.40-21.40 52.78-20.02Q55.16-18.64 56.50-16.16Q57.84-13.68 57.84-10.48L57.84-10.48ZM47.36-18.16Q44.60-18.16 42.74-16.48Q40.88-14.80 40.56-12.08L40.56-12.08L54.16-12.08Q53.84-14.76 51.98-16.46Q50.12-18.16 47.36-18.16L47.36-18.16Z M74.40 0.24Q71.16 0.24 68.62-1.16Q66.08-2.56 64.64-5.02Q63.20-7.48 63.20-10.60L63.20-10.60Q63.20-13.72 64.64-16.18Q66.08-18.64 68.62-20.02Q71.16-21.40 74.40-21.40L74.40-21.40Q77.28-21.40 79.54-20.24Q81.80-19.08 83.04-16.88L83.04-16.88L80.12-15Q79.12-16.52 77.64-17.28Q76.16-18.04 74.36-18.04L74.36-18.04Q72.28-18.04 70.62-17.12Q68.96-16.20 68.02-14.50Q67.08-12.80 67.08-10.60L67.08-10.60Q67.08-8.36 68.02-6.66Q68.96-4.96 70.62-4.04Q72.28-3.12 74.36-3.12L74.36-3.12Q76.16-3.12 77.64-3.88Q79.12-4.64 80.12-6.16L80.12-6.16L83.04-4.32Q81.80-2.12 79.54-0.94Q77.28 0.24 74.40 0.24L74.40 0.24Z M98.76 0.24Q95.60 0.24 93.08-1.16Q90.56-2.56 89.14-5.02Q87.72-7.48 87.72-10.60L87.72-10.60Q87.72-13.72 89.14-16.18Q90.56-18.64 93.08-20.02Q95.60-21.40 98.76-21.40L98.76-21.40Q101.92-21.40 104.42-20.02Q106.92-18.64 108.34-16.18Q109.76-13.72 109.76-10.60L109.76-10.60Q109.76-7.48 108.34-5.02Q106.92-2.56 104.42-1.16Q101.92 0.24 98.76 0.24L98.76 0.24ZM98.76-3.12Q100.80-3.12 102.42-4.06Q104.04-5 104.96-6.70Q105.88-8.40 105.88-10.60L105.88-10.60Q105.88-12.80 104.96-14.50Q104.04-16.20 102.42-17.12Q100.80-18.04 98.76-18.04L98.76-18.04Q96.72-18.04 95.10-17.12Q93.48-16.20 92.54-14.50Q91.60-12.80 91.60-10.60L91.60-10.60Q91.60-8.40 92.54-6.70Q93.48-5 95.10-4.06Q96.72-3.12 98.76-3.12L98.76-3.12Z M120.76-17.64Q121.76-19.48 123.72-20.44Q125.68-21.40 128.48-21.40L128.48-21.40L128.48-17.68Q128.16-17.72 127.60-17.72L127.60-17.72Q124.48-17.72 122.70-15.86Q120.92-14 120.92-10.56L120.92-10.56L120.92 0L117.08 0L117.08-21.20L120.76-21.20L120.76-17.64Z M142.88-21.40Q147.28-21.40 149.62-19.24Q151.96-17.08 151.96-12.80L151.96-12.80L151.96 0L148.32 0L148.32-2.80Q147.36-1.32 145.58-0.54Q143.80 0.24 141.36 0.24L141.36 0.24Q137.80 0.24 135.66-1.48Q133.52-3.20 133.52-6L133.52-6Q133.52-8.80 135.56-10.50Q137.60-12.20 142.04-12.20L142.04-12.20L148.12-12.20L148.12-12.96Q148.12-15.44 146.68-16.76Q145.24-18.08 142.44-18.08L142.44-18.08Q140.56-18.08 138.76-17.46Q136.96-16.84 135.72-15.80L135.72-15.80L134.12-18.68Q135.76-20 138.04-20.70Q140.32-21.40 142.88-21.40L142.88-21.40ZM142-2.72Q144.20-2.72 145.80-3.70Q147.40-4.68 148.12-6.48L148.12-6.48L148.12-9.44L142.20-9.44Q137.32-9.44 137.32-6.16L137.32-6.16Q137.32-4.56 138.56-3.64Q139.80-2.72 142-2.72L142-2.72Z M171.80-4L173-1.24Q172.16-0.52 170.92-0.14Q169.68 0.24 168.36 0.24L168.36 0.24Q165.16 0.24 163.40-1.48Q161.64-3.20 161.64-6.40L161.64-6.40L161.64-18.04L158.04-18.04L158.04-21.20L161.64-21.20L161.64-25.84L165.48-25.84L165.48-21.20L171.56-21.20L171.56-18.04L165.48-18.04L165.48-6.56Q165.48-4.84 166.34-3.92Q167.20-3 168.80-3L168.80-3Q170.56-3 171.80-4L171.80-4Z M179.64 0L179.64-21.20L183.48-21.20L183.48 0L179.64 0ZM181.56-25.28Q180.44-25.28 179.70-26Q178.96-26.72 178.96-27.76L178.96-27.76Q178.96-28.80 179.70-29.54Q180.44-30.28 181.56-30.28L181.56-30.28Q182.68-30.28 183.42-29.58Q184.16-28.88 184.16-27.84L184.16-27.84Q184.16-26.76 183.42-26.02Q182.68-25.28 181.56-25.28L181.56-25.28Z M207.80-21.20L211.56-21.20L202.28 0L198.36 0L189.08-21.20L193.08-21.20L200.36-4.20L207.80-21.20Z M235.72-10.48Q235.72-10.04 235.64-9.32L235.64-9.32L218.44-9.32Q218.80-6.52 220.90-4.82Q223-3.12 226.12-3.12L226.12-3.12Q229.92-3.12 232.24-5.68L232.24-5.68L234.36-3.20Q232.92-1.52 230.78-0.64Q228.64 0.24 226 0.24L226 0.24Q222.64 0.24 220.04-1.14Q217.44-2.52 216.02-5Q214.60-7.48 214.60-10.60L214.60-10.60Q214.60-13.68 215.98-16.16Q217.36-18.64 219.78-20.02Q222.20-21.40 225.24-21.40L225.24-21.40Q228.28-21.40 230.66-20.02Q233.04-18.64 234.38-16.16Q235.72-13.68 235.72-10.48L235.72-10.48ZM225.24-18.16Q222.48-18.16 220.62-16.48Q218.76-14.80 218.44-12.08L218.44-12.08L232.04-12.08Q231.72-14.76 229.86-16.46Q228-18.16 225.24-18.16L225.24-18.16Z M267.28-28Q272.72-28 275.84-25.40Q278.96-22.80 278.96-18.24L278.96-18.24Q278.96-13.68 275.84-11.08Q272.72-8.48 267.28-8.48L267.28-8.48L260.36-8.48L260.36 0L256.36 0L256.36-28L267.28-28ZM267.16-11.96Q270.96-11.96 272.96-13.58Q274.96-15.20 274.96-18.24L274.96-18.24Q274.96-21.28 272.96-22.90Q270.96-24.52 267.16-24.52L267.16-24.52L260.36-24.52L260.36-11.96L267.16-11.96Z M286.68 0L286.68-29.68L290.52-29.68L290.52 0L286.68 0Z M307.56-21.40Q311.96-21.40 314.30-19.24Q316.64-17.08 316.64-12.80L316.64-12.80L316.64 0L313 0L313-2.80Q312.04-1.32 310.26-0.54Q308.48 0.24 306.04 0.24L306.04 0.24Q302.48 0.24 300.34-1.48Q298.20-3.20 298.20-6L298.20-6Q298.20-8.80 300.24-10.50Q302.28-12.20 306.72-12.20L306.72-12.20L312.80-12.20L312.80-12.96Q312.80-15.44 311.36-16.76Q309.92-18.08 307.12-18.08L307.12-18.08Q305.24-18.08 303.44-17.46Q301.64-16.84 300.40-15.80L300.40-15.80L298.80-18.68Q300.44-20 302.72-20.70Q305-21.40 307.56-21.40L307.56-21.40ZM306.68-2.72Q308.88-2.72 310.48-3.70Q312.08-4.68 312.80-6.48L312.80-6.48L312.80-9.44L306.88-9.44Q302-9.44 302-6.16L302-6.16Q302-4.56 303.24-3.64Q304.48-2.72 306.68-2.72L306.68-2.72Z M337.08-21.40Q341.12-21.40 343.50-19.06Q345.88-16.72 345.88-12.20L345.88-12.20L345.88 0L342.04 0L342.04-11.76Q342.04-14.84 340.56-16.40Q339.08-17.96 336.32-17.96L336.32-17.96Q333.20-17.96 331.40-16.14Q329.60-14.32 329.60-10.92L329.60-10.92L329.60 0L325.76 0L325.76-21.20L329.44-21.20L329.44-18Q330.60-19.64 332.58-20.52Q334.56-21.40 337.08-21.40L337.08-21.40Z M365.72-4L366.92-1.24Q366.08-0.52 364.84-0.14Q363.60 0.24 362.28 0.24L362.28 0.24Q359.08 0.24 357.32-1.48Q355.56-3.20 355.56-6.40L355.56-6.40L355.56-18.04L351.96-18.04L351.96-21.20L355.56-21.20L355.56-25.84L359.40-25.84L359.40-21.20L365.48-21.20L365.48-18.04L359.40-18.04L359.40-6.56Q359.40-4.84 360.26-3.92Q361.12-3 362.72-3L362.72-3Q364.48-3 365.72-4L365.72-4Z M379.64 0.24Q377.04 0.24 374.64-0.46Q372.24-1.16 370.88-2.24L370.88-2.24L372.48-5.28Q373.88-4.28 375.88-3.68Q377.88-3.08 379.92-3.08L379.92-3.08Q384.96-3.08 384.96-5.96L384.96-5.96Q384.96-6.92 384.28-7.48Q383.60-8.04 382.58-8.30Q381.56-8.56 379.68-8.88L379.68-8.88Q377.12-9.28 375.50-9.80Q373.88-10.32 372.72-11.56Q371.56-12.80 371.56-15.04L371.56-15.04Q371.56-17.92 373.96-19.66Q376.36-21.40 380.40-21.40L380.40-21.40Q382.52-21.40 384.64-20.88Q386.76-20.36 388.12-19.48L388.12-19.48L386.48-16.44Q383.88-18.12 380.36-18.12L380.36-18.12Q377.92-18.12 376.64-17.32Q375.36-16.52 375.36-15.20L375.36-15.20Q375.36-14.16 376.08-13.56Q376.80-12.96 377.86-12.68Q378.92-12.40 380.84-12.04L380.84-12.04Q383.40-11.60 384.98-11.10Q386.56-10.60 387.68-9.40Q388.80-8.20 388.80-6.04L388.80-6.04Q388.80-3.16 386.34-1.46Q383.88 0.24 379.64 0.24L379.64 0.24Z"/></g>
</svg>
</g><g opacity="1" transform="rotate(0 188.0166 190.2436)">
<svg width="380.448" height="28" x="188.0166" y="190.2436" version="1.1" preserveAspectRatio="none" viewBox="3.32 -31.48 432.08000000000004 31.8">
  <g transform="matrix(1 0 0 1 0 0)" class="companyName"><path id="id-D6z1nYkh17" d="M3.32 0L3.32-28L16.04-28Q20.60-28 24.10-26.26Q27.60-24.52 29.54-21.36Q31.48-18.20 31.48-14L31.48-14Q31.48-9.80 29.54-6.64Q27.60-3.48 24.10-1.74Q20.60 0 16.04 0L16.04 0L3.32 0ZM9.80-5.32L15.72-5.32Q19.92-5.32 22.42-7.66Q24.92-10 24.92-14L24.92-14Q24.92-18 22.42-20.34Q19.92-22.68 15.72-22.68L15.72-22.68L9.80-22.68L9.80-5.32Z M61.08-10.68Q61.08-10.56 60.96-9L60.96-9L44.68-9Q45.12-7 46.76-5.84Q48.40-4.68 50.84-4.68L50.84-4.68Q52.52-4.68 53.82-5.18Q55.12-5.68 56.24-6.76L56.24-6.76L59.56-3.16Q56.52 0.32 50.68 0.32L50.68 0.32Q47.04 0.32 44.24-1.10Q41.44-2.52 39.92-5.04Q38.40-7.56 38.40-10.76L38.40-10.76Q38.40-13.92 39.90-16.46Q41.40-19 44.02-20.42Q46.64-21.84 49.88-21.84L49.88-21.84Q53.04-21.84 55.60-20.48Q58.16-19.12 59.62-16.58Q61.08-14.04 61.08-10.68L61.08-10.68ZM49.92-17.12Q47.80-17.12 46.36-15.92Q44.92-14.72 44.60-12.64L44.60-12.64L55.20-12.64Q54.88-14.68 53.44-15.90Q52-17.12 49.92-17.12L49.92-17.12Z M79.72 0.32Q76.28 0.32 73.54-1.10Q70.80-2.52 69.26-5.04Q67.72-7.56 67.72-10.76L67.72-10.76Q67.72-13.96 69.26-16.48Q70.80-19 73.54-20.42Q76.28-21.84 79.72-21.84L79.72-21.84Q83.12-21.84 85.66-20.42Q88.20-19 89.36-16.36L89.36-16.36L84.52-13.76Q82.84-16.72 79.68-16.72L79.68-16.72Q77.24-16.72 75.64-15.12Q74.04-13.52 74.04-10.76L74.04-10.76Q74.04-8 75.64-6.40Q77.24-4.80 79.68-4.80L79.68-4.80Q82.88-4.80 84.52-7.76L84.52-7.76L89.36-5.12Q88.20-2.56 85.66-1.12Q83.12 0.32 79.72 0.32L79.72 0.32Z M107 0.32Q103.60 0.32 100.90-1.10Q98.20-2.52 96.68-5.04Q95.16-7.56 95.16-10.76L95.16-10.76Q95.16-13.96 96.68-16.48Q98.20-19 100.90-20.42Q103.60-21.84 107-21.84L107-21.84Q110.40-21.84 113.08-20.42Q115.76-19 117.28-16.48Q118.80-13.96 118.80-10.76L118.80-10.76Q118.80-7.56 117.28-5.04Q115.76-2.52 113.08-1.10Q110.40 0.32 107 0.32L107 0.32ZM107-4.80Q109.40-4.80 110.94-6.42Q112.48-8.04 112.48-10.76L112.48-10.76Q112.48-13.48 110.94-15.10Q109.40-16.72 107-16.72L107-16.72Q104.60-16.72 103.04-15.10Q101.48-13.48 101.48-10.76L101.48-10.76Q101.48-8.04 103.04-6.42Q104.60-4.80 107-4.80L107-4.80Z M133-18.68Q134.12-20.24 136.02-21.04Q137.92-21.84 140.40-21.84L140.40-21.84L140.40-16.08Q139.36-16.16 139-16.16L139-16.16Q136.32-16.16 134.80-14.66Q133.28-13.16 133.28-10.16L133.28-10.16L133.28 0L127.04 0L127.04-21.52L133-21.52L133-18.68Z M156.76-21.84Q161.76-21.84 164.44-19.46Q167.12-17.08 167.12-12.28L167.12-12.28L167.12 0L161.28 0L161.28-2.68Q159.52 0.32 154.72 0.32L154.72 0.32Q152.24 0.32 150.42-0.52Q148.60-1.36 147.64-2.84Q146.68-4.32 146.68-6.20L146.68-6.20Q146.68-9.20 148.94-10.92Q151.20-12.64 155.92-12.64L155.92-12.64L160.88-12.64Q160.88-14.68 159.64-15.78Q158.40-16.88 155.92-16.88L155.92-16.88Q154.20-16.88 152.54-16.34Q150.88-15.80 149.72-14.88L149.72-14.88L147.48-19.24Q149.24-20.48 151.70-21.16Q154.16-21.84 156.76-21.84L156.76-21.84ZM156.28-3.88Q157.88-3.88 159.12-4.62Q160.36-5.36 160.88-6.80L160.88-6.80L160.88-9L156.60-9Q152.76-9 152.76-6.48L152.76-6.48Q152.76-5.28 153.70-4.58Q154.64-3.88 156.28-3.88L156.28-3.88Z M189.04-5.44L190.72-1.04Q189.80-0.36 188.46-0.02Q187.12 0.32 185.64 0.32L185.64 0.32Q181.80 0.32 179.70-1.64Q177.60-3.60 177.60-7.40L177.60-7.40L177.60-16.24L174.28-16.24L174.28-21.04L177.60-21.04L177.60-26.28L183.84-26.28L183.84-21.04L189.20-21.04L189.20-16.24L183.84-16.24L183.84-7.48Q183.84-6.12 184.54-5.38Q185.24-4.64 186.52-4.64L186.52-4.64Q188.00-4.64 189.04-5.44L189.04-5.44Z M198.32 0L198.32-21.52L204.56-21.52L204.56 0L198.32 0ZM201.44-24.52Q199.72-24.52 198.64-25.52Q197.56-26.52 197.56-28L197.56-28Q197.56-29.48 198.64-30.48Q199.72-31.48 201.44-31.48L201.44-31.48Q203.16-31.48 204.24-30.52Q205.32-29.56 205.32-28.12L205.32-28.12Q205.32-26.56 204.24-25.54Q203.16-24.52 201.44-24.52L201.44-24.52Z M229.80-21.52L235.80-21.52L226.72 0L220.28 0L211.24-21.52L217.68-21.52L223.64-6.88L229.80-21.52Z M262.92-10.68Q262.92-10.56 262.80-9L262.80-9L246.52-9Q246.96-7 248.60-5.84Q250.24-4.68 252.68-4.68L252.68-4.68Q254.36-4.68 255.66-5.18Q256.96-5.68 258.08-6.76L258.08-6.76L261.40-3.16Q258.36 0.32 252.52 0.32L252.52 0.32Q248.88 0.32 246.08-1.10Q243.28-2.52 241.76-5.04Q240.24-7.56 240.24-10.76L240.24-10.76Q240.24-13.92 241.74-16.46Q243.24-19 245.86-20.42Q248.48-21.84 251.72-21.84L251.72-21.84Q254.88-21.84 257.44-20.48Q260.00-19.12 261.46-16.58Q262.92-14.04 262.92-10.68L262.92-10.68ZM251.76-17.12Q249.64-17.12 248.20-15.92Q246.76-14.72 246.44-12.64L246.44-12.64L257.04-12.64Q256.72-14.68 255.28-15.90Q253.84-17.12 251.76-17.12L251.76-17.12Z M299.12-28Q302.84-28 305.58-26.76Q308.32-25.52 309.80-23.24Q311.28-20.96 311.28-17.84L311.28-17.84Q311.28-14.76 309.80-12.46Q308.32-10.16 305.58-8.94Q302.84-7.72 299.12-7.72L299.12-7.72L293.48-7.72L293.48 0L287.00 0L287.00-28L299.12-28ZM298.76-13Q301.68-13 303.20-14.26Q304.72-15.52 304.72-17.84L304.72-17.84Q304.72-20.20 303.20-21.46Q301.68-22.72 298.76-22.72L298.76-22.72L293.48-22.72L293.48-13L298.76-13Z M319.92 0L319.92-29.68L326.16-29.68L326.16 0L319.92 0Z M344.72-21.84Q349.72-21.84 352.40-19.46Q355.08-17.08 355.08-12.28L355.08-12.28L355.08 0L349.24 0L349.24-2.68Q347.48 0.32 342.68 0.32L342.68 0.32Q340.20 0.32 338.38-0.52Q336.56-1.36 335.60-2.84Q334.64-4.32 334.64-6.20L334.64-6.20Q334.64-9.20 336.90-10.92Q339.16-12.64 343.88-12.64L343.88-12.64L348.84-12.64Q348.84-14.68 347.60-15.78Q346.36-16.88 343.88-16.88L343.88-16.88Q342.16-16.88 340.50-16.34Q338.84-15.80 337.68-14.88L337.68-14.88L335.44-19.24Q337.20-20.48 339.66-21.16Q342.12-21.84 344.72-21.84L344.72-21.84ZM344.24-3.88Q345.84-3.88 347.08-4.62Q348.32-5.36 348.84-6.80L348.84-6.80L348.84-9L344.56-9Q340.72-9 340.72-6.48L340.72-6.48Q340.72-5.28 341.66-4.58Q342.60-3.88 344.24-3.88L344.24-3.88Z M377.88-21.84Q381.88-21.84 384.34-19.44Q386.80-17.04 386.80-12.32L386.80-12.32L386.80 0L380.56 0L380.56-11.36Q380.56-13.92 379.44-15.18Q378.32-16.44 376.20-16.44L376.20-16.44Q373.84-16.44 372.44-14.98Q371.04-13.52 371.04-10.64L371.04-10.64L371.04 0L364.80 0L364.80-21.52L370.76-21.52L370.76-19Q372-20.36 373.84-21.10Q375.68-21.84 377.88-21.84L377.88-21.84Z M408.72-5.44L410.40-1.04Q409.48-0.36 408.14-0.02Q406.80 0.32 405.32 0.32L405.32 0.32Q401.48 0.32 399.38-1.64Q397.28-3.60 397.28-7.40L397.28-7.40L397.28-16.24L393.96-16.24L393.96-21.04L397.28-21.04L397.28-26.28L403.52-26.28L403.52-21.04L408.88-21.04L408.88-16.24L403.52-16.24L403.52-7.48Q403.52-6.12 404.22-5.38Q404.92-4.64 406.20-4.64L406.20-4.64Q407.68-4.64 408.72-5.44L408.72-5.44Z M425.24 0.32Q422.56 0.32 420.00-0.34Q417.44-1 415.92-2L415.92-2L418.00-6.48Q419.44-5.56 421.48-4.98Q423.52-4.40 425.48-4.40L425.48-4.40Q429.44-4.40 429.44-6.36L429.44-6.36Q429.44-7.28 428.36-7.68Q427.28-8.08 425.04-8.36L425.04-8.36Q422.40-8.76 420.68-9.28Q418.96-9.80 417.70-11.12Q416.44-12.44 416.44-14.88L416.44-14.88Q416.44-16.92 417.62-18.50Q418.80-20.08 421.06-20.96Q423.32-21.84 426.40-21.84L426.40-21.84Q428.68-21.84 430.94-21.34Q433.20-20.84 434.68-19.96L434.68-19.96L432.60-15.52Q429.76-17.12 426.40-17.12L426.40-17.12Q424.40-17.12 423.40-16.56Q422.40-16 422.40-15.12L422.40-15.12Q422.40-14.12 423.48-13.72Q424.56-13.32 426.92-12.96L426.92-12.96Q429.56-12.52 431.24-12.02Q432.92-11.52 434.16-10.20Q435.40-8.88 435.40-6.52L435.40-6.52Q435.40-4.52 434.20-2.96Q433.00-1.40 430.70-0.54Q428.40 0.32 425.24 0.32L425.24 0.32Z"/></g>
</svg>
</g><g opacity="1" transform="rotate(0 302.151 -102.6085)">
<svg width="152.1792" height="252.8521" x="302.151" y="-102.6085" version="1.1" preserveAspectRatio="none" viewBox="19.56478500366211 0.9549999237060547 59.611515045166016 99.04700469970703">
  <g transform="matrix(1 0 0 1 0 0)" class="icon1"><path d="M43.914,10.113c-1.343,2.434,0.651,4.949,0.651,4.949C45.351,12.307,43.914,10.113,43.914,10.113z   M46.58,14.994c-0.317,0.009-0.955,0.058-1.585,0.282c0.311-0.301,0.562-0.509,0.751-0.65c3.39,0.237,4.886-1.884,4.886-1.884  c-1.605-0.336-2.748-0.069-3.539,0.355c1.032-0.889,1.391-1.728,1.391-1.728c0.896-2.464-1.498-3.837-1.498-3.837  c1.16,1.924,0.008,3.905,0.008,3.905c-0.852,1.16-0.827,2.343-0.827,2.343c0.006-0.005,0.013-0.01,0.021-0.014  c-0.153,0.152-0.276,0.301-0.371,0.428c-0.293,0.188-0.906,0.645-1.719,1.587c-0.013,0.01-0.024,0.017-0.035,0.026l0.006,0.007  c-0.721,0.841-1.592,2.064-2.522,3.806c-0.325,0.101-0.707,0.308-1.037,0.705c0.104-1.135,0.167-2.528,0.2-3.915  c0.075-3.073,0.016-6.075,0.016-6.075c-0.018-0.132-0.057-0.25-0.082-0.377h0.006c0.01-0.2,0.02-0.421,0.025-0.66  c0.028-1.187-0.006-2.778-0.023-3.505c1.771-2.458,0.611-4.838,0.611-4.838C41.087,1.67,40.3,2.473,40.3,2.473  c-1.207,1.229-0.371,2.697,0.035,3.26c0.018,0.618,0.047,2.029,0.027,3.201c-0.5-1.417-1.324-2.5-1.842-3.077  c0.021-2.046-3.728-2.307-3.646-2.18c0.87,1.379,2.661,2.081,3.349,2.308c0.635,0.696,1.91,2.316,2.191,4.376  c-0.003-0.013,0.059,2.978-0.018,6.042c-0.053,2.085-0.168,4.2-0.402,5.405c-0.297-3.293-2.902-4.556-2.902-4.556  c-0.061,0.889,0.135,1.685,0.444,2.377c-0.938-0.389-2.408-0.768-4.522-0.686c0,0,3.133,1.449,4.502,3.092  c0.078,0.17,0.246,0.582,0.41,1.19c-0.462-0.162-0.931-0.22-1.314-0.229c-0.331-0.008-0.594,0.017-0.762,0.039  c-1.002-0.091-3.41-0.238-4.589,0.336c0,0-1.611,0.834-1.054,3.211c0,0,1.101-0.898,1.981-1.185c0.795-0.26,2.896-1.28,3.843-2.068  c0.149-0.015,0.343-0.027,0.573-0.021c0.426,0.013,0.932,0.086,1.41,0.289c0.184,0.779,0.336,1.79,0.305,2.987  c-0.006,0.412-0.043,0.847-0.102,1.3c-0.045,0.088-0.078,0.166-0.125,0.256c-0.006,0.017-0.986,2.677-1.943,5.245  c-0.615,0.203-1.666,0.795-2.159,2.546c-0.005,0.016-0.196,1.005-0.224,2.127c-0.011,0.435,0.002,0.896,0.066,1.329  c-0.582,1.523-1.348,3.673-1.939,5.843c-0.027-0.027-0.055-0.06-0.082-0.084c-0.16-2.212-1.663-3.43-2.358-3.882  c-1.549-2.409-4.959,0.54-4.959,0.54c2.309,1.038,4.103,0.112,4.74-0.311c0.591,0.371,1.964,1.449,2.217,3.392  c-0.593-0.356-1.222-0.42-1.412-0.43c-0.867-0.625-1.915,0.161-1.915,0.161c-3.057-1.05-6.269,4.216-6.269,4.216  c1.708-0.525,5.522-3.104,5.522-3.104c-0.645,1.115-0.049,2.053-0.049,2.053c2.474-1.359,2.913-2.65,2.986-2.977  c0.4,0.07,1.052,0.264,1.484,0.777c-0.377,1.429-0.668,2.847-0.767,4.077c0-0.002-0.178,1.456-0.235,3.811  c-0.086,3.499,0.104,8.979,1.555,14.611c-0.004,0.008-0.008,0.015-0.011,0.021l0.019,0.008c0.18,0.699,0.373,1.401,0.598,2.104  c0.001,0.003,0.273,0.846,0.677,2.062c-1.14-1.332-3.074-4.401-3.729-5.454c0.004-0.044,0.011-0.075,0.009-0.119  c0.01-0.397-0.049-0.943-0.115-1.411c1.229-3.814-0.827-4.729-0.827-4.729c-1.406,2.307-0.158,3.908,0.482,4.52  c0.06,0.387,0.122,0.866,0.144,1.27c-0.981-1.273-1.759-2.07-2.327-2.562c-0.085-0.137-0.289-0.607-0.478-1.045  c-0.186-0.354-0.255-0.646-0.399-0.836c-0.309-1.178-1.125-3.283-1.125-3.283c-0.485-1.244,0.562-4.148,0.562-4.148  c-4.577,4.804-0.521,7.395,0.467,7.926c0.124,0.266,0.272,0.615,0.412,0.933c-0.132-0.095-0.231-0.157-0.314-0.207  c-2.048-2.496-5.15-1.774-5.15-1.774c0.581,1.506,2.601,2.891,2.601,2.891c-1.87,0.828-1.884,3.552-1.884,3.552  c0.593-1.167,2.118-2.621,2.118-2.621c-0.186,1.282,0.295,2.681,0.295,2.681c1.742-1.908,1.072-3.933,1.072-3.933  c0.439-0.124,0.798-0.286,1.003-0.388c0.149,0.1,0.334,0.24,0.57,0.445c0.008,0.01,0.018,0.028,0.024,0.039l0.012-0.011  c0.56,0.486,1.346,1.287,2.363,2.621c0,0,0.063,0.104,0.168,0.274c-0.001,0.015-0.002,0.031-0.004,0.044l0.034,0.005  c0.695,1.123,3.09,4.945,4.192,5.971c0,0,0.391,1.059,0.588,1.652c-5.095-0.23-4.088,2.742-4.073,2.785  c-0.035,0.095-0.129,0.397-0.14,0.855c-0.012,0.408,0.055,0.938,0.296,1.516c-1.485-1.547-3.099-3.299-3.51-3.746  c-0.011-0.014-0.022-0.033-0.036-0.049c-0.159-0.369-1.354-3.127-1.481-3.849c0,0-0.844,1.472,0.439,2.979  c-0.948-0.488-2.608-0.838-5.486-0.328c-0.159,0.025,1.023,0.179,2.399,0.624c1.267,0.407,2.543,0.722,3.939,0.839  c0.208,0.227,0.7,0.765,1.334,1.441c-0.089,0.063-0.19,0.182-0.311,0.386c-0.033,0.021-0.07,0.052-0.111,0.09  c-0.787-0.175-1.513-0.294-1.846-0.347c-0.125-0.453-0.534-1.181-1.91-0.996c0,0-1.54-0.037-4.334,2.875  c-0.107,0.111,3.69-1.76,6.306-1.541c0,0-0.001-0.012-0.001-0.014c0.338,0.053,0.916,0.152,1.553,0.287  c-0.157,0.209-0.345,0.516-0.563,0.99c0,0-2.179,0.818-2.223,2.619c0,0-0.167,0.561,1.448,1.729c0,0,0.166-2.615,0.959-3.521  c0,0,0.851-0.957,0.995-1.674c0.416,0.104,0.819,0.219,1.154,0.343l0.009-0.024c0.699,0.743,1.438,1.516,2.077,2.162  c0.027,0.033,0.049,0.064,0.079,0.098l0.009-0.011c0.607,0.615,1.117,1.104,1.395,1.314c0-0.003,7.709,7.43,9.516,11.127  c0.4,1.048,0.767,2.065,1.066,3.01L44.414,100h0.327c-1.377-4.43-1.754-5.482-2.168-6.562l0.003-0.002l-0.009-0.016  c-1.062-2.76-2.371-5.691-3.43-7.96h0.01c0.154-0.728,0.23-1.399,0.246-2.024c0.055-2.207-0.685-3.815-1.549-4.94  c1.861-0.421,2.875-1.455,2.875-1.455c-2.018-0.603-3.177-0.155-3.83,0.426c-0.072-0.065-0.143-0.13-0.211-0.188  c0.397-0.719,1.059-1.461,2.065-1.627c2.237,1.177,4.583,0.881,4.583,0.881c-1.243-2.559-3.739-1.627-4.604-1.207  c-1.142,0.188-1.865,0.986-2.299,1.75c-0.516-0.397-0.933-0.622-1.085-0.699c-0.069-0.202-0.139-0.402-0.209-0.607  c0.669-0.486,1.316-0.979,1.316-0.979c-0.642-0.102-1.195-0.158-1.714-0.194c-0.807-2.397-1.48-4.469-1.482-4.477  c-0.009-0.024-0.014-0.05-0.021-0.072c0.248-0.94,1.25-2.795,2.016-4.134c0.141-0.014,0.281-0.021,0.414-0.018  c0.361,0.011,0.679,0.068,0.908,0.129c-0.488,0.299-1.469,1.059-0.323,1.808c0,0,1.618,1.063,6.019-0.267  c0,0-1.572-0.81-2.115-1.746c0,0-2.328-2.639-3.297-0.039c-0.237-0.074-0.658-0.185-1.184-0.195  c-0.074-0.003-0.156,0.005-0.238,0.007c0.407-0.707,0.711-1.205,0.721-1.225c0.849-0.502,2.354-1.276,2.836-1.522  c2.67-0.773,5.38,0.045,5.38,0.045c-2.138-2.293-4.774-0.533-5.334-0.117c-3.897,0.203-3.521,1.578-3.402,1.858  c-0.149,0.252-0.354,0.597-0.583,0.995c-0.889,0.128-1.874,0.639-2.496,1.986c-1.351-5.45-1.528-10.733-1.442-14.133  c0.054-2.342,0.235-3.785,0.235-3.787c0.366-4.676,3.626-12.292,3.626-12.304c0.144-0.366,0.322-0.841,0.522-1.37l0.011,0.015  c0.9-0.596,1.553-1.219,2.02-1.762c0.812,0.581,1.713,1.134,1.713,1.134c0.808,0.637,1.893,2.513,1.893,2.513  c-0.091-0.465,0.326-0.764,0.326-0.764c0.784-0.597,0.748-1.215,0.748-1.215c-0.312-1.429-2.464-2.123-4.076-2.449  c0.115-0.173,0.201-0.316,0.266-0.43c1.426-1.069,7.395-2.761,7.395-2.761c-7.887-0.404-7.91,1.836-7.68,2.627  c-0.069,0.126-0.178,0.299-0.317,0.5c-0.544-0.097-1.002-0.153-1.257-0.18c0.93-2.49,1.846-4.981,1.846-4.981  c0.055-0.104,0.094-0.194,0.146-0.295h0.002v-0.004c1.093-2.177,1.508-3.71,1.646-4.646c0.539-1.33,1.071-2.461,1.589-3.437  c0.17-0.041,0.305-0.05,0.387-0.052c3.002,1.828,4.449,0.418,4.449,0.418c-1.563-1.52-3.549-1.021-4.351-0.728  c-0.011-0.002-0.019-0.003-0.043-0.003c-0.05-0.003-0.144,0.001-0.255,0.014c0.871-1.603,1.688-2.739,2.361-3.522  c0.799-0.721,2.416-0.706,2.463-0.71c0.127,0.064,0.25,0.143,0.379,0.226c-0.51,1.203,0.324,2.381,0.324,2.381  c0.49-0.655,0.551-1.318,0.525-1.731c0.898,0.8,1.632,1.732,1.632,1.732C49.302,14.389,47.31,14.739,46.58,14.994z M28.048,78.211  c0-0.01-0.01-0.018-0.012-0.027c0.076-0.125,0.139-0.217,0.184-0.262c0.034-0.037,0.056-0.047,0.066-0.055  c0.163,0.174,0.333,0.355,0.506,0.542C28.556,78.337,28.303,78.273,28.048,78.211z M37.507,78.561  c0.868,1.082,1.635,2.662,1.578,4.867c-0.012,0.479-0.077,1-0.173,1.545c-0.974-2.064-1.683-3.475-1.683-3.477  c-0.244-0.518-0.641-1.568-1.088-2.822C36.642,78.684,37.084,78.634,37.507,78.561z M36.533,77.562  c0.045,0.037,0.091,0.08,0.138,0.119c-0.244,0.275-0.396,0.553-0.479,0.743C36.252,78.23,36.36,77.92,36.533,77.562z M36.274,77.35  c-0.146,0.303-0.25,0.575-0.321,0.791c-0.149-0.428-0.306-0.873-0.462-1.326C35.692,76.932,35.968,77.111,36.274,77.35z   M34.867,75.961c0.81,2.369,1.659,4.771,2.082,5.672c0.008,0.014,2.565,5.098,4.633,10.154c-2.739-3.971-8.61-9.604-8.616-9.613  c-0.277-0.215-0.818-0.734-1.463-1.387c-0.853-1.006-1.021-1.936-1.01-2.564c0.001-0.062,0.009-0.105,0.012-0.16  c0.734,1.4,3.33-1.385,3.33-1.385C34.042,76.553,34.442,76.271,34.867,75.961z M34.847,65.973c-0.642,1.129-1.4,2.553-1.768,3.535  c-0.141-0.468-0.275-0.936-0.398-1.404C33.2,66.703,34.037,66.152,34.847,65.973z M34.679,37.268c0,0.002-0.24,0.57-0.594,1.471  c-0.014-0.224-0.014-0.45-0.008-0.672c0.025-1.09,0.214-2.061,0.214-2.063c0.403-1.411,1.163-1.988,1.711-2.232  C35.487,35.149,34.994,36.458,34.679,37.268z M36.642,33.587v-0.004c0.174,0.157,0.392,0.329,0.629,0.505  c-0.381,0.44-0.91,0.935-1.588,1.427c0.221-0.588,0.463-1.228,0.707-1.881C36.542,33.596,36.642,33.589,36.642,33.587z   M38.593,27.119c0.012-0.174,0.038-0.36,0.041-0.528c0.027-1.09-0.094-2.041-0.255-2.805c0.429,0.264,0.806,0.664,1.036,1.28  C39.22,25.654,38.956,26.333,38.593,27.119z M39.931,22.575c-0.01,0.371-0.084,1.052-0.381,2.052  c-0.314-0.616-0.771-1.015-1.271-1.256c-0.092-0.373-0.186-0.683-0.271-0.929c0.242-0.106,0.727-0.356,0.982-0.75  c0.419,0.42,0.781,0.694,0.941,0.809C39.929,22.528,39.931,22.543,39.931,22.575z M40.24,22.363  c-0.005-0.11-0.011-0.187-0.013-0.194c0.082-0.309,0.149-0.72,0.209-1.19l0.008,0.004c0.244-0.496,0.57-0.771,0.88-0.932  C40.97,20.742,40.606,21.51,40.24,22.363z M61.728,27.512c0,0-3.336,2.794-3.414,7.544C58.313,35.056,62.688,32.023,61.728,27.512z   M70.209,89.874c0,0-1.286-1.752-2.964-1.176c-0.305-0.076-1.334-0.274-2.445,0.006c1.334-2.964,4.031-4.015,5.148-4.322  c0.809,0.979,3.211,3.312,7.375,2.774c0,0-3.996-6.321-7.615-3.242c-1.322,0.384-4.291,1.596-5.609,5.031  c-0.056,0.021-0.113,0.062-0.172,0.093c0.104-3.729-0.078-7.511-0.269-10.207c0.31-0.656,0.55-1.383,0.746-2.078  c0.493-1.796,0.667-3.454,0.666-3.483c0.059-3.018-1.324-4.461-2.204-5.08c-0.285-4.535-0.562-9.23-0.562-9.258  c-0.033-0.17-0.048-0.309-0.078-0.47c0.125-0.749,0.276-1.457,0.463-2.112c0.527-1.914,1.257-3.447,1.924-4.595  c0.855-0.095,1.695,0.035,2.377,0.218c0.367,0.104,0.666,0.215,0.898,0.312c1.125,1.701,3.967,4.333,5.104,5.128  c1.262,0.88,2.579,2.832,2.579,2.832c2.025-3.505-0.131-5.603-0.131-5.603c-1.596-1.478-5.489-2.404-7.121-2.74  c-0.26-0.114-0.664-0.28-1.192-0.428c-0.616-0.172-1.386-0.305-2.196-0.269c0.551-0.885,1.019-1.459,1.219-1.693  c2.965-1.948,8.64-2.743,8.64-2.743c-3.321-1.148-5.838-1.251-7.513-1.085c0.824-0.95,1.519-2.12,1.849-3.562  c0,0-4.741,0.754-6.797,5.837c0.208-2.024,1.04-5.438,1.96-8.771c1.354-4.904,2.887-9.62,2.876-9.603  c1.437-3.133,4.237-5.09,5.583-5.892c1.198-0.031,4.379-0.283,6.424-2.055c0.188-0.161-5.887-1.549-6.837,1.709  c-1.101,0.667-2.927,1.992-4.405,4c0.534-1.869,1.26-4.096,1.586-5.069c0.914-0.699,2.949-2.627,1.625-5.157  c0,0-0.867-1.655-0.799-2.873c0,0-2.982,3.222-1.354,7.976c-0.379,1.146-1.198,3.654-1.723,5.551  c-0.104,0.384-0.193,0.741-0.277,1.062l0.008,0.003c-0.102,0.19-0.221,0.356-0.311,0.559c0,0-1.539,4.735-2.896,9.652  c-0.612,2.217-1.187,4.457-1.563,6.31c-0.334-0.79-0.838-1.3-1.307-1.616c-0.643-3.214-1.436-5.572-2.177-7.256l0.014-0.008  c-0.013-0.02-0.03-0.036-0.043-0.057c-0.839-1.885-1.593-2.905-1.966-3.344c-0.088-0.249-0.214-0.544-0.383-0.859  c0.01,0.012,0.018,0.021,0.025,0.032c0,0,0.606-1.869-0.188-4.12c0,0-0.879-3.697,1.889-6.193c0,0-4.463,1.029-4.225,5.372  c0,0,0.166,1.504,1.378,3.412c-1.052-1.055-2.735-2.028-5.447-2.265c0,0,1.354,4.084,6.851,5.339  c0.23,0.315,0.533,0.766,0.879,1.392c-0.893-0.658-1.881-1.042-2.381-1.21c-1.037-0.755-4.028-2.267-6.246,3.159  c0,0,1.611-1.126,3.424-1.966c-0.241,0.643-0.463,1.725,0.002,3c0,0,1.889-1.469,1.66-3.622c0.242-0.073,0.477-0.135,0.71-0.179  c0.069,0.03,2.646,0.784,3.565,2.312c0.694,1.569,1.444,3.765,2.057,6.728c-0.17-0.075-0.318-0.127-0.396-0.145  c-0.04-0.012-0.052-0.014-0.07-0.017c-1.131-0.852-4.041-2.596-7.254-0.935c0,0,1.619,2.932,7.264,1.476  c0.128,0.041,0.339,0.122,0.589,0.269c0.351,1.795,0.651,3.847,0.87,6.218c-0.23,1.552-0.307,4.185,0.381,8.165v0.009  c0.037,0.187,0.056,0.349,0.09,0.538c0,0,0.257,4.395,0.534,8.794c-0.416-0.08-1.17-0.212-2.082-0.318  c-0.124-0.386-0.212-0.712-0.265-0.946c0.748-1.144,1.789-4.709-10.928-7.86c0,0,8.664,5.556,10.418,7.938  c0.045,0.209,0.112,0.478,0.213,0.808c-2.717-0.257-6.465-0.188-7.646,1.93c0,0-0.357,0.963,0.602,2.289c0,0,0.52,0.674,0.149,1.369  c0,0,2.624-2.454,4.213-3.08c0,0,1.694-0.446,3.263-0.978c0.481,1.086,1.217,2.388,2.36,3.77l0.022-0.02  c0.063,0.937,0.121,1.775,0.172,2.426c-0.006,0.021,1.51,13.678-0.157,21.274c0,0.005-0.222,1.298-0.751,3.466l0.492,0.15  c0.539-2.204,0.77-3.521,0.77-3.52c0.434-2,0.652-4.39,0.742-6.84c0.934-0.604,2.059-0.6,2.729-0.519  c-0.039,0.553,0.035,2.813,3.31,6.16c0,0,1.396-1.205,0.909-3.28c0,0,4.091,3.728,6.551,5.383  C77.411,97.386,75.829,89.084,70.209,89.874z M61.062,44.534c0.412,0.408,0.8,1,0.947,1.902l0.018-0.001  c-0.135,0.775-0.225,1.459-0.241,1.988c-0.006,0.011-0.054,0.129-0.112,0.302C61.501,47.197,61.294,45.801,61.062,44.534z   M62.06,49.208c0.016-0.052,0.025-0.071,0.037-0.117c0.312-0.104,1.017-0.367,1.883-0.832c0.219,0.75,0.865,1.377,1.199,1.666  c-0.254,0.347-0.554,0.796-0.879,1.343c-0.908,0.146-1.828,0.556-2.621,1.381C61.687,50.92,61.897,49.801,62.06,49.208z M62,57.066  c-0.202-1.422-0.291-2.627-0.319-3.651c0.662-0.869,1.453-1.322,2.26-1.536c-0.621,1.137-1.271,2.588-1.752,4.332  C62.113,56.477,62.065,56.785,62,57.066z M60.749,68.766c0.463-0.166,0.891-0.334,1.241-0.5v0.004  c-0.002,0.006,0.151,0.064,0.379,0.197c0.073,1.153,0.147,2.287,0.216,3.326C61.743,70.686,61.142,69.646,60.749,68.766z   M63.334,75.057c-0.11-1.436-0.267-3.75-0.421-6.185c0.754,0.649,1.682,1.933,1.645,4.366c0,0.004-0.168,1.634-0.65,3.376  c-0.098,0.355-0.208,0.716-0.335,1.062C63.442,76.078,63.334,75.061,63.334,75.057z"></path></g>
</svg>
</g></svg></svg>